<svg id="Camada_1" data-name="Camada 1" xmlns="http://www.w3.org/2000/svg" viewBox="0 0 360 296"><path d="M259.58,350.8c10.58,5.73,24.23,7.82,35.57,3.08a30.45,30.45,0,0,0,5.17-2.81c-1.05-1.46-2.13-2.89-3.23-4.27-9.62-11.93-23.09-23.47-38.17-29.15l-.24.13c-4.93,2.71-11.41,6.25-13.45,11.92C242,338.77,252.65,347.05,259.58,350.8Z" transform="translate(-87.5 -201.5)" fill="#1d1d1b" stroke="#1d1d1b" stroke-miterlimit="10"/><path d="M266.61,412.36c-3.29,1.37-6.65,2.59-10.07,3.63,1.15,0,2.3,0,3.45,0a47,47,0,0,0,14.07-3.39A61.56,61.56,0,0,1,266.61,412.36Z" transform="translate(-87.5 -201.5)" fill="#1d1d1b" stroke="#1d1d1b" stroke-miterlimit="10"/><path d="M294,398.63q2.32-2.49,4.4-5.21c-2.89,2.26-5.85,4.44-8.9,6.5C291,399.54,292.46,399.1,294,398.63Z" transform="translate(-87.5 -201.5)" fill="#1d1d1b" stroke="#1d1d1b" stroke-miterlimit="10"/><path d="M268.23,364.77c-12.61-3.12-26.44-11-31.72-23.47-4.78-11.31.86-20.38,9.18-26.95l-1.25-.13-1.68.63c-8.11,7.21-16.16,15.79-20,25.88a64.47,64.47,0,0,0-1.36,22.34c.16.71.34,1.43.54,2.14a85.38,85.38,0,0,0,12.54,18.17c8.89,9.75,18.82,16.76,31.55,18.42,16.48-7.24,32.68-18.81,43.94-33.09a72.52,72.52,0,0,0-4.34-9.24C294.73,366.53,281,367.92,268.23,364.77Z" transform="translate(-87.5 -201.5)" fill="#1d1d1b" stroke="#1d1d1b" stroke-miterlimit="10"/><path d="M232.68,202c13,1.65,26.05,3.29,39.28,3.66,16.74.47,33.53-.16,50.23,1.41s33.64,5.25,48.1,14.25,25.27,23.18,33.8,37.53c9.05,15.22,15.46,31.62,16.84,49.37.75,9.55.43,19.14.21,28.71-.22,9.85.36,19.6.86,29.44,1.59,31.07,1.6,64.72-20.17,89.3-16.38,18.48-40.45,28.83-63.82,35.19A268.26,268.26,0,0,1,308.9,497H447V202Z" transform="translate(-87.5 -201.5)" fill="#1d1d1b" stroke="#1d1d1b" stroke-miterlimit="10"/><path d="M177.91,493.07c-15.33-6.4-26.24-17.92-33.57-32.63-7.41-14.88-11.74-31-18.44-46.18-7-15.94-15.82-31.15-20-48.23a76.79,76.79,0,0,1,2.52-44.6c11.23-31.25,33.68-60.74,61.86-78.51C202.23,222.8,240.8,220.25,277,227.86c20.42,4.28,40,11.44,59.44,19,13.28,5.17,26,11.61,36,22,9.3,9.69,15.41,21.82,19.28,34.6a173,173,0,0,1,7.37,46.12c.53,26.75-6.69,53.78-23,75.28-15.73,20.78-38.35,35.07-63.36,42-27.7,7.71-57,6.1-85.09,1.34-26.67-4.52-54.22-14.35-70.89-36.86-18.15-24.49-18.73-59.42-12-88,7.25-30.77,24.74-59.27,50.66-77.68,5.26-3.73,10.25,4.94,5,8.64a110.21,110.21,0,0,0-28.89,30.78c-15.78,24.8-23.38,55.34-19.78,84.62,1.65,13.42,5.81,26.74,14.29,37.47,7.65,9.68,18.09,16.69,29.31,21.62,23.44,10.28,51.38,13.55,76.79,13.47,25.09-.09,50.31-6.2,71.35-20.21A101.12,101.12,0,0,0,384.23,387c7.89-26.23,5.74-54.9-2.12-80.89-3.59-11.91-9.34-23.09-18.33-31.82-9.91-9.63-22.4-14.9-35.1-19.81-35.88-13.86-74.34-25.72-113.1-18.53-30.21,5.61-55.82,23.14-74.41,47.33-10,13-19,28.05-24.07,43.73-4.48,13.94-4.28,27.79,0,41.75,4.76,15.7,13.11,29.81,19.37,44.88,5.92,14.26,10.12,29.27,17.2,43,7.17,13.95,17.89,24.16,33,29,14.42,4.61,29.73,4.69,44.72,5.19,22.22.74,44.43.29,66.52-2.42,23.31-2.86,47.2-8.07,68.3-18.7,19.23-9.68,36.1-24.62,42.17-45.92,5-17.45,4.65-35.9,3.82-53.86-.41-8.74-1.26-17.52-1.16-26.27.1-9.23.55-18.46.3-27.7-.44-17-4.91-32.23-13-47.14-7.63-14-17.67-28.68-31.14-37.67-26.66-17.81-60.95-14.87-91.48-15.44-17.24-.33-34.17-2.35-51.24-4.69-17.65-2.41-35.06-3.37-52.35,1.66C145.86,220.33,119.57,240.3,120,270c.09,6.45-9.91,6.43-10,0-.21-14.6,5.08-28.1,14.42-39.23C137.19,215.53,155,206.3,174.11,202H88V497H190.18A80.33,80.33,0,0,1,177.91,493.07Zm46.73-199.52,0-.07a5,5,0,0,1,6.24-1.86l.07,0a103,103,0,0,1,30.08-17.71c11.38-4.37,24.35-6.3,36.19-2.58a42.3,42.3,0,0,1,16.61,9.81,71.44,71.44,0,0,1,29.86,11c15,10,23.8,26.7,22.27,44.89-1.49,17.71-12.33,33.43-25,45.24-2.37,2.22-5,4.41-7.7,6.55a109.75,109.75,0,0,1-14.79,20.9c-7.05,13.35-20.31,24.41-34.8,27.3a46.87,46.87,0,0,1-11.16.83,43.15,43.15,0,0,1-11.9-.55c-10.61-2-20.3-7.84-28.77-15.09a82.1,82.1,0,0,1-7.94-4.67,36,36,0,0,1-12.23-6.22c-7.12-5.56-11.7-13.55-14.43-22.05A64,64,0,0,1,189,365c-3.69-14.94-3.49-31.21,3.54-44.91S211.09,298.3,224.64,293.55Z" transform="translate(-87.5 -201.5)" fill="#1d1d1b" stroke="#1d1d1b" stroke-miterlimit="10"/><path d="M323.51,293.62A74,74,0,0,1,330.43,311a35,35,0,0,1,1.78,3.25A51.44,51.44,0,0,1,335.94,325a53.65,53.65,0,0,1,7,35c-.31,2.28-.74,4.55-1.25,6.8,13.37-15.93,20.79-36.19,8.14-55.15C343.79,302.57,333.94,296.83,323.51,293.62Z" transform="translate(-87.5 -201.5)" fill="#1d1d1b" stroke="#1d1d1b" stroke-miterlimit="10"/><path d="M284.6,281a36.19,36.19,0,0,1,6.73-.17c.72-.07,1.45-.15,2.18-.21-8.43-2.4-17.56-1.46-26.36,1.39A127.55,127.55,0,0,1,284,281Z" transform="translate(-87.5 -201.5)" fill="#1d1d1b" stroke="#1d1d1b" stroke-miterlimit="10"/><path d="M299.53,315.46a118.81,118.81,0,0,0-20.15-4l-2.5-.31q-2.86.57-5.67,1.41a105.43,105.43,0,0,1,21.59,15.17,114.28,114.28,0,0,1,14.94,16.51,32.39,32.39,0,0,0,2.43-3.52A17.88,17.88,0,0,0,311,339c-.53-1.94-1.14-3.84-1.85-5.69A72.55,72.55,0,0,0,299.53,315.46Z" transform="translate(-87.5 -201.5)" fill="#1d1d1b" stroke="#1d1d1b" stroke-miterlimit="10"/><path d="M213.1,336a51.37,51.37,0,0,1,11.71-27.15,2.56,2.56,0,0,0,0-3.54,2.52,2.52,0,0,0-3.53,0A57.26,57.26,0,0,0,208.1,336a2.52,2.52,0,0,0,2.5,2.5,2.56,2.56,0,0,0,2.5-2.5Z" transform="translate(-87.5 -201.5)" fill="#ffed00"/><path d="M277,301.36a25.92,25.92,0,0,1,7.08,1.07,26.24,26.24,0,0,1,6.61,2.82,2.5,2.5,0,0,0,2.52-4.32A34,34,0,0,0,277,296.36a2.52,2.52,0,0,0-2.5,2.5,2.55,2.55,0,0,0,2.5,2.5Z" transform="translate(-87.5 -201.5)" fill="#ffed00"/><path d="M327.69,340a49.5,49.5,0,0,1-8.94,27.67,2.51,2.51,0,0,0,.89,3.42,2.54,2.54,0,0,0,3.42-.9A54.13,54.13,0,0,0,332.69,340c0-3.22-5-3.22-5,0Z" transform="translate(-87.5 -201.5)" fill="#ffed00"/><path d="M294.17,400.89,285,420.81a2.58,2.58,0,0,0,.9,3.42,2.52,2.52,0,0,0,3.42-.89l9.16-19.93a2.57,2.57,0,0,0-.89-3.42,2.52,2.52,0,0,0-3.42.9Z" transform="translate(-87.5 -201.5)" fill="#ffed00"/><path d="M320.53,381.13q-8,14-16.78,27.55c-1.75,2.71,2.58,5.22,4.32,2.53q8.76-13.56,16.78-27.56c1.6-2.79-2.72-5.31-4.32-2.52Z" transform="translate(-87.5 -201.5)" fill="#ffed00"/><path d="M208.92,370.06a139.46,139.46,0,0,1,18.17,24.05c1.65,2.76,6,.25,4.32-2.52a145.88,145.88,0,0,0-18.95-25.06c-2.21-2.35-5.74,1.19-3.54,3.53Z" transform="translate(-87.5 -201.5)" fill="#009640"/><path d="M319.35,313a30.76,30.76,0,0,0,3.59,12.2,2.53,2.53,0,0,0,3.42.9,2.57,2.57,0,0,0,.9-3.43c-.22-.39-.43-.8-.63-1.21l-.33-.7c-.1-.23-.24-.51-.05-.12a18.28,18.28,0,0,1-.94-2.66c-.26-.88-.48-1.76-.65-2.65l-.12-.67c0-.07-.12-.83-.07-.44s0-.37-.05-.44c0-.26-.05-.52-.07-.78a2.5,2.5,0,0,0-5,0Z" transform="translate(-87.5 -201.5)" fill="#009640"/><path d="M241.47,296a10.87,10.87,0,0,1,.06,2.35c0,.09,0,.19,0,.28,0,.32.09-.56,0-.24s-.06.38-.1.56a9.12,9.12,0,0,1-.3,1.17c0,.18-.12.36-.18.54a.81.81,0,0,1-.11.27c.05-.06.24-.52.09-.21s-.33.69-.52,1-.43.68-.66,1,.33-.4.13-.17l-.18.22c-.14.17-.28.33-.43.48a2.5,2.5,0,0,0,3.54,3.54A13.51,13.51,0,0,0,246.47,296a2.73,2.73,0,0,0-.73-1.76,2.58,2.58,0,0,0-1.77-.74,2.54,2.54,0,0,0-1.77.74,2.38,2.38,0,0,0-.73,1.76Z" transform="translate(-87.5 -201.5)" fill="#009640"/><path d="M205.34,337.73a33.15,33.15,0,0,1,.64,14.68,2.5,2.5,0,1,0,4.82,1.33,38.77,38.77,0,0,0-.64-17.34,2.52,2.52,0,0,0-3.07-1.74,2.54,2.54,0,0,0-1.75,3.07Z" transform="translate(-87.5 -201.5)" fill="#009640"/></svg>