<svg xmlns="http://www.w3.org/2000/svg" viewBox="0 0 135.25 135.25"><defs><style>.cls-1{fill:#fefefe;}</style></defs><g id="Camada_2" data-name="Camada 2"><g id="Camada_1-2" data-name="Camada 1"><path d="M33.76,0h67.73a50.63,50.63,0,0,1,6.32,1,37.94,37.94,0,0,1,26.86,28.07c.38,1.54.21,3.13.56,4.67v67.73A32.64,32.64,0,0,1,132.3,113a37.43,37.43,0,0,1-20.72,19.74,34.45,34.45,0,0,1-13.13,2.35c-20.2,0-40.4-.1-60.6,0A36.34,36.34,0,0,1,14.06,127,37.09,37.09,0,0,1,1.35,107.94,34.43,34.43,0,0,1,.16,98.32q0-31,0-62A35.25,35.25,0,0,1,9.76,12,37.41,37.41,0,0,1,29.22.58C30.71.22,32.27.39,33.76,0Z"/><path class="cls-1" d="M33.76,0c-1.71.7-3.57.64-5.33,1.15Q7.27,7.23,1.38,28.43A34.75,34.75,0,0,0,.29,37.68c0,19.9-.19,39.79.05,59.68.2,16.15,8,27.71,22.57,34.57a34.47,34.47,0,0,0,14.84,3c20,0,40,.2,59.94-.06,16.15-.21,27.67-8.05,34.54-22.62A33.28,33.28,0,0,0,135,102.16c0-.24,0-.54.28-.67,0,10.94,0,21.88,0,32.81,0,.79-.16.95-.95.95q-66.68,0-133.36,0c-.78,0-.94-.16-.94-.95Q0,67.62,0,.94C0,.16.16,0,.94,0Q17.35,0,33.76,0Z"/><path class="cls-1" d="M135.23,33.76c-.67-2.29-.82-4.69-1.54-7a37,37,0,0,0-22-24.13A33.14,33.14,0,0,0,101.88.28c-.19,0-.34-.05-.39-.26Q117.9,0,134.3,0c.79,0,.95.16.95.94C135.21,11.88,135.23,22.82,135.23,33.76Z"/><path class="cls-1" d="M12.25,67.49q0-14.68,0-29.38A25.32,25.32,0,0,1,17,22.66,24.9,24.9,0,0,1,38,12q29.71-.06,59.42,0C109,12,118.1,18.54,121.9,29.18a26.08,26.08,0,0,1,1.36,8.8q0,29.51,0,59c0,11.62-6.51,20.87-17.24,24.67A26.35,26.35,0,0,1,97.2,123q-29.45,0-58.89,0c-11.64,0-20.87-6.46-24.7-17.19a26.79,26.79,0,0,1-1.36-9.06Q12.24,82.12,12.25,67.49Z"/><path d="M102.53,67.5A34.78,34.78,0,1,1,67.76,32.72,34.93,34.93,0,0,1,102.53,67.5Z"/><path d="M104,22.6a8.75,8.75,0,1,1-8.79,8.78A8.84,8.84,0,0,1,104,22.6Z"/><path class="cls-1" d="M90.53,67.5A22.78,22.78,0,1,1,67.8,44.71,22.8,22.8,0,0,1,90.53,67.5Z"/></g></g></svg>